<?xml version="1.0" encoding="utf-8"?>
<!-- Generator: Adobe Illustrator 23.0.2, SVG Export Plug-In . SVG Version: 6.00 Build 0)  -->
<svg version="1.1" id="svg2" xmlns:svg="http://www.w3.org/2000/svg"
	 xmlns="http://www.w3.org/2000/svg" xmlns:xlink="http://www.w3.org/1999/xlink" x="0px" y="0px" viewBox="0 0 687.9 179"
	 style="enable-background:new 0 0 687.9 179;" xml:space="preserve">
<style type="text/css">
	.st0{fill:#5A5A5A;}
	.st1{fill:#575757;}
	.st2{fill:#585858;}
	.st3{fill:#616161;}
	.st4{fill:#595959;}
	.st5{fill:#606060;}
	.st6{fill:#636363;}
	.st7{fill:#626262;}
	.st8{fill:#A9A9A9;}
	.st9{fill:#BBBBBB;}
</style>
<g>
	<g>
		<g>
			<g>
				
					<image style="overflow:visible;enable-background:new    ;" width="44" height="27" xlink:href="7F345739.png"  transform="matrix(1 0 0 1 369.8012 1.396)">
				</image>
			</g>
			<g>
				<polygon class="st0" points="366.6,36.8 373.6,51.2 347.4,49.4 340.4,34.9 				"/>
			</g>
			<g>
				<polygon class="st1" points="370.3,13.1 377.3,27.5 373.6,51.2 366.6,36.8 				"/>
			</g>
			<g>
				
					<image style="overflow:visible;enable-background:new    ;" width="28" height="45" xlink:href="7F34573B.png"  transform="matrix(1 0 0 1 319.8012 34.396)">
				</image>
			</g>
			<g>
				<polygon class="st2" points="420,19.6 427,34 413.1,16 406.1,1.6 				"/>
			</g>
			<g>
				<polygon class="st2" points="441.5,2.5 448.5,16.9 427,34 420,19.6 				"/>
			</g>
			<g>
				<polygon class="st3" points="336.5,80.6 343.5,95 327.3,78.7 320.3,64.3 				"/>
			</g>
			<g>
				<polygon class="st2" points="334,80.5 340.9,95 325.3,79.2 318.3,64.8 				"/>
			</g>
			<g>
				
					<image style="overflow:visible;enable-background:new    ;" width="39" height="28" xlink:href="7F34573E.png"  transform="matrix(1 0 0 1 440.8012 2.396)">
				</image>
			</g>
			<g>
				<polygon class="st4" points="336.5,80.6 343.5,95 320.5,110.4 313.5,96 				"/>
			</g>
			<g>
				<polygon class="st5" points="472,15.5 479,30 472.6,53.6 465.6,39.1 				"/>
			</g>
			<g>
				<polygon class="st1" points="473.6,14.5 480.6,28.9 474.8,52 467.8,37.5 				"/>
			</g>
			<g>
				<polygon class="st0" points="492.3,38.6 499.3,53 472.6,53.6 465.6,39.1 				"/>
			</g>
			<g>
				
					<image style="overflow:visible;enable-background:new    ;" width="9" height="17" xlink:href="7F34573F.png"  transform="matrix(1 0 0 1 491.8012 38.396)">
				</image>
			</g>
			<g>
				
					<image style="overflow:visible;enable-background:new    ;" width="78" height="64" xlink:href="7F34573A.png"  transform="matrix(1 0 0 1 369.8012 49.396)">
				</image>
			</g>
			<g>
				
					<image style="overflow:visible;enable-background:new    ;" width="78" height="64" xlink:href="7F345735.png"  transform="matrix(1 0 0 1 369.8012 49.396)">
				</image>
			</g>
			<g>
				
					<image style="overflow:visible;enable-background:new    ;" width="76" height="62" xlink:href="7F345736.png"  transform="matrix(1 0 0 1 370.8012 51.396)">
				</image>
			</g>
			<g>
				
					<image style="overflow:visible;enable-background:new    ;" width="15" height="44" xlink:href="7F345737.png"  transform="matrix(1 0 0 1 312.8012 95.396)">
				</image>
			</g>
			<g>
				
					<image style="overflow:visible;enable-background:new    ;" width="9" height="18" xlink:href="7F345749.png"  transform="matrix(1 0 0 1 319.8012 123.396)">
				</image>
			</g>
			<g>
				
					<image style="overflow:visible;enable-background:new    ;" width="9" height="18" xlink:href="62909B42.png"  transform="matrix(1 0 0 1 317.8012 124.396)">
				</image>
			</g>
			<g>
				<polygon class="st6" points="347.5,125.4 354.5,139.8 327.8,140.4 320.8,126 				"/>
			</g>
			<g>
				<polygon class="st0" points="345.3,127 352.3,141.4 326.6,142 319.6,127.6 				"/>
			</g>
			<g>
				
					<image style="overflow:visible;enable-background:new    ;" width="14" height="44" xlink:href="62909B45.png"  transform="matrix(1 0 0 1 492.8012 39.396)">
				</image>
			</g>
			<g>
				
					<image style="overflow:visible;enable-background:new    ;" width="15" height="44" xlink:href="62909B46.png"  transform="matrix(1 0 0 1 493.8012 39.396)">
				</image>
			</g>
			<g>
				<polygon class="st1" points="347.5,125.4 354.5,139.8 348.1,163.4 341.1,149 				"/>
			</g>
			<g>
				<polygon class="st7" points="499.6,68.6 506.6,83 483.6,98.4 476.6,84 				"/>
			</g>
			<g>
				<path class="st8" d="M399.2,52.2c19.8-6.4,39.2,1.9,43.2,18.5c4.1,16.6-8.7,35.2-28.5,41.6c-19.8,6.4-39.1-1.9-43.2-18.5
					C366.6,77.2,379.4,58.6,399.2,52.2z M435.7,94.8c4.9-7.2,7-15.5,5-23.4c-1.9-7.9-7.5-13.8-15-17c-7.4-3.2-16.8-3.7-26.2-0.6
					c-9.4,3-17.2,9-22.1,16.1c-4.9,7.2-7,15.5-5,23.4c1.9,7.9,7.5,13.8,15,17c7.4,3.2,16.8,3.7,26.2,0.6
					C423,107.9,430.7,101.9,435.7,94.8"/>
			</g>
			<g>
				
					<image style="overflow:visible;enable-background:new    ;" width="79" height="64" xlink:href="62909B44.png"  transform="matrix(1 0 0 1 371.8012 65.396)">
				</image>
			</g>
			<g>
				<polygon class="st4" points="501.4,68.7 508.4,83.1 486.1,98.4 479.2,84 				"/>
			</g>
			<g>
				<polygon class="st2" points="492.8,100.3 499.8,114.7 483.6,98.4 476.6,84 				"/>
			</g>
			<g>
				
					<image style="overflow:visible;enable-background:new    ;" width="38" height="29" xlink:href="62909B43.png"  transform="matrix(1 0 0 1 340.8012 148.396)">
				</image>
			</g>
			<g>
				<polygon class="st7" points="393.1,145 400.1,159.4 378.6,176.5 371.6,162.1 				"/>
			</g>
			<g>
				<polygon class="st2" points="392.6,147.3 399.6,161.7 378.8,178.2 371.9,163.8 				"/>
			</g>
			<g>
				
					<image style="overflow:visible;enable-background:new    ;" width="41" height="29" xlink:href="62909B5D.png"  transform="matrix(1 0 0 1 338.8012 149.396)">
				</image>
			</g>
			<g>
				<polygon class="st6" points="472.7,129.6 479.7,144 453.5,142.2 446.6,127.8 				"/>
			</g>
			<g>
				
					<image style="overflow:visible;enable-background:new    ;" width="28" height="45" xlink:href="62909B5E.png"  transform="matrix(1 0 0 1 471.8012 99.396)">
				</image>
			</g>
			<g>
				<polygon class="st3" points="407,163 414,177.4 400.1,159.4 393.1,145 				"/>
			</g>
			<g>
				<polygon class="st0" points="473.6,130.9 480.6,145.3 455,143.9 448,129.5 				"/>
			</g>
			<g>
				
					<image style="overflow:visible;enable-background:new    ;" width="29" height="46" xlink:href="62909B5C.png"  transform="matrix(1 0 0 1 472.8012 99.396)">
				</image>
			</g>
			<g>
				<polygon class="st2" points="406.5,164.6 413.5,179 399.6,161.7 392.6,147.3 				"/>
			</g>
			<g>
				
					<image style="overflow:visible;enable-background:new    ;" width="43" height="26" xlink:href="62909B47.png"  transform="matrix(1 0 0 1 406.8012 151.396)">
				</image>
			</g>
			<g>
				<polygon class="st5" points="446.6,127.8 453.5,142.2 449.8,165.9 442.8,151.5 				"/>
			</g>
			<g>
				<path class="st9" d="M465.6,39.1l26.7-0.6c2.3,4.5,4.2,9.3,5.4,14.4c1.3,5.1,1.9,10.3,1.9,15.6l-23,15.4l16.2,16.3
					c-4.6,10.5-11.5,20.5-20.1,29.3l-26.1-1.8l-3.7,23.7c-5.5,2.8-11.4,5.3-17.5,7.2c-6.1,2-12.2,3.4-18.2,4.3l-13.9-18l-21.5,17.1
					c-11.4-2.4-21.8-6.8-30.5-13.1l6.4-23.6l-26.7,0.6c-2.3-4.5-4.2-9.3-5.4-14.4c-1.3-5.1-1.9-10.3-1.9-15.6l23.1-15.4l-16.2-16.3
					c4.6-10.5,11.5-20.5,20.1-29.3l26.1,1.8l3.7-23.7c5.5-2.8,11.4-5.3,17.5-7.2c6.1-2,12.2-3.4,18.2-4.3l14,18l21.5-17.1
					c11.4,2.4,21.8,6.8,30.5,13.1L465.6,39.1z M413.9,112.3c19.8-6.4,32.6-25,28.5-41.6c-4.1-16.6-23.4-24.9-43.2-18.5
					c-19.8,6.4-32.6,25-28.5,41.6C374.8,110.4,394.1,118.7,413.9,112.3"/>
				<g>
					
						<image style="overflow:visible;enable-background:new    ;" width="188" height="163" xlink:href="62909B49.png"  transform="matrix(1 0 0 1 312.8012 1.396)">
					</image>
					<g>
						
							<image style="overflow:visible;enable-background:new    ;" width="43" height="26" xlink:href="62909B79.png"  transform="matrix(1 0 0 1 406.8012 151.396)">
						</image>
					</g>
					<g>
						<polygon class="st1" points="448,129.5 455,143.9 451.4,166.7 444.4,152.3 						"/>
					</g>
					<g>
						
							<image style="overflow:visible;enable-background:new    ;" width="46" height="28" xlink:href="62909B7B.png"  transform="matrix(1 0 0 1 405.8012 151.396)">
						</image>
					</g>
					<g>
						<path class="st8" d="M493.5,37c2.7,5,4.6,10.1,5.9,15.4c1.3,5.4,2,10.8,2,16.3L479.2,84l15.6,15.7
							c-5,11.5-12.1,21.9-21.2,31.1l-25.6-1.4l-3.6,22.8c-6.2,3.2-12.4,5.8-18.8,7.8c-6.4,2.1-12.8,3.5-19.1,4.4l-13.9-17.3
							l-20.7,16.5c-12.4-2.5-23.3-7.2-32.4-13.8l5.8-23l-25.7,0.6c-2.7-5-4.6-10.1-5.9-15.4c-1.3-5.4-2-10.8-2-16.3L334,80.6
							l-15.6-15.7c5-11.5,12.1-21.9,21.2-31.1l25.6,1.4l3.6-22.8c6.2-3.2,12.4-5.8,18.8-7.8c6.4-2.1,12.8-3.5,19.1-4.4l13.9,17.3
							l20.7-16.5c12.4,2.5,23.3,7.2,32.4,13.8l-5.8,23L493.5,37z M499.6,68.6c0-5.2-0.7-10.4-1.9-15.6c-1.3-5.1-3.1-10-5.4-14.4
							l-26.7,0.6l6.4-23.6c-8.7-6.2-19.1-10.7-30.5-13.1L420,19.6l-13.9-18c-6,0.9-12.1,2.3-18.2,4.3c-6.1,2-12,4.4-17.5,7.2
							l-3.7,23.7l-26.1-1.8c-8.6,8.8-15.5,18.8-20.1,29.3l16.2,16.3L313.5,96c0,5.2,0.7,10.4,1.9,15.6c1.3,5.1,3.1,9.9,5.4,14.4
							l26.7-0.6l-6.4,23.6c8.7,6.2,19.1,10.7,30.5,13.1l21.5-17.1l13.9,18c6-0.9,12.1-2.3,18.2-4.3c6.1-2,12-4.4,17.5-7.2l3.7-23.7
							l26.1,1.8c8.6-8.8,15.5-18.8,20.1-29.3L476.6,84L499.6,68.6"/>
					</g>
				</g>
			</g>
		</g>
		<g>
			<g>
				<g>
					
						<image style="overflow:visible;enable-background:new    ;" width="102" height="89" xlink:href="62909B78.png"  transform="matrix(1 0 0 1 1.8012 43.396)">
					</image>
					
						<image style="overflow:visible;enable-background:new    ;" width="101" height="89" xlink:href="62909B67.png"  transform="matrix(1 0 0 1 112.8012 43.396)">
					</image>
					
						<image style="overflow:visible;enable-background:new    ;" width="102" height="89" xlink:href="62909B69.png"  transform="matrix(1 0 0 1 222.8012 43.396)">
					</image>
					
						<image style="overflow:visible;enable-background:new    ;" width="21" height="89" xlink:href="62909B6B.png"  transform="matrix(1 0 0 1 333.8012 43.396)">
					</image>
					
						<image style="overflow:visible;enable-background:new    ;" width="101" height="89" xlink:href="62909B68.png"  transform="matrix(1 0 0 1 363.8012 43.396)">
					</image>
					
						<image style="overflow:visible;enable-background:new    ;" width="101" height="89" xlink:href="62909B6F.png"  transform="matrix(1 0 0 1 473.8012 43.396)">
					</image>
					
						<image style="overflow:visible;enable-background:new    ;" width="102" height="89" xlink:href="62909B6A.png"  transform="matrix(1 0 0 1 583.8012 43.396)">
					</image>
				</g>
			</g>
			
				<image style="overflow:visible;enable-background:new    ;" width="684" height="89" xlink:href="62909B56.png"  transform="matrix(1 0 0 1 1.8012 43.396)">
			</image>
		</g>
		<g>
			<path d="M78,134.4H32.9v-2.8v-2.8H78c7.9,0,13.2-2.2,16.7-6.3l0,0c3.6-4.1,5.6-10.7,5.6-20.1l0,0V73.4c0-9.3-2.4-15.7-6.7-19.9
				l0,0C89.3,49.3,82.6,47,73,47l0,0H32.9c-9.6,0-16.3,2.3-20.7,6.5l0,0c-4.3,4.2-6.7,10.6-6.7,19.9l0,0v29.1
				c0,9.3,2.4,15.7,6.7,19.9l0,0c4.3,4.2,11,6.5,20.7,6.5l0,0v2.8v2.8c-10.4,0-18.8-2.5-24.5-8.1l0,0C2.7,120.9,0,112.7,0,102.5l0,0
				V73.4c0-10.2,2.7-18.3,8.4-23.8l0,0c5.7-5.5,14.1-8.1,24.5-8.1l0,0H73c10.4,0,18.8,2.5,24.5,8.1l0,0c5.7,5.5,8.4,13.7,8.4,23.8
				l0,0v29.1c0,10.1-2.2,18.1-6.9,23.7l0,0c-4.8,5.6-12,8.2-20.8,8.2l0,0C78.1,134.4,78.1,134.4,78,134.4L78,134.4z M73,115H32.9
				v-2.8v-2.8H73c2.9,0,4.6-0.7,5.6-1.6l0,0c1-0.9,1.7-2.5,1.7-5.3l0,0V73.4c0-2.8-0.7-4.4-1.7-5.3l0,0c-1-1-2.7-1.6-5.6-1.7l0,0
				H32.9c-2.9,0-4.6,0.7-5.6,1.7l0,0c-1,0.9-1.7,2.5-1.7,5.3l0,0v29.1c0,2.8,0.7,4.4,1.7,5.3l0,0c1,0.9,2.7,1.6,5.6,1.6l0,0v2.8v2.8
				c-3.8,0-7.1-0.9-9.4-3.2l0,0c-2.4-2.3-3.4-5.6-3.4-9.3l0,0V73.4c0-3.7,1-7,3.4-9.3l0,0c2.4-2.3,5.7-3.2,9.4-3.2l0,0H73
				c3.8,0,7.1,0.9,9.4,3.2l0,0c2.4,2.3,3.4,5.6,3.3,9.3l0,0v29.1c0,3.7-1,7-3.4,9.3l0,0C80.1,114.1,76.8,115,73,115L73,115
				C73,115,73,115,73,115L73,115z"/>
			<path d="M113.1,134.4v-2.8h2.8h-2.8L113.1,134.4h-2.8v-93h73c10.4,0,18.7,2.3,24.4,7.4l0,0c5.7,5.1,8.5,12.8,8.5,22.2l0,0
				c0,9.4-2.7,17-8.5,22l0,0c-5.7,5.1-14,7.3-24.4,7.3l0,0H136v34L113.1,134.4L113.1,134.4z M115.9,128.9l14.5,0v-34h52.9
				c9.7,0,16.5-2.1,20.7-6l0,0c4.3-3.8,6.6-9.5,6.6-17.9l0,0c0-8.5-2.3-14.2-6.6-18l0,0c-4.3-3.8-11.1-6-20.7-6l0,0h-67.5V128.9
				L115.9,128.9z M130.5,81V60.9h65.7v17.3V81L130.5,81L130.5,81z M193.4,78.3v-2.8V78.3L193.4,78.3z M136,75.5h54.7v-9H136V75.5
				L136,75.5z"/>
			<path d="M260.9,134.4v-68h-40.1V44.3v-2.8h105.9v25h-40.1v68H260.9L260.9,134.4z M226.3,60.9h40.1v68H281v-68l40.1,0V47h-94.8
				L226.3,60.9L226.3,60.9z"/>
			<path d="M333.9,134.4v-2.8h2.8h-2.8V134.4h-2.8v-93h25.6v93H333.9L333.9,134.4z M336.7,128.9l14.5,0V47h-14.5V128.9L336.7,128.9z
				"/>
			<path d="M439.3,134.4h-45.2v-2.8v-2.8h45.2c7.9,0,13.2-2.2,16.7-6.3l0,0c3.6-4.1,5.6-10.7,5.6-20.1l0,0V73.4
				c0-9.3-2.4-15.7-6.7-19.9l0,0c-4.3-4.2-11-6.5-20.7-6.5l0,0h-40.1c-9.6,0-16.3,2.3-20.7,6.5l0,0c-4.3,4.2-6.7,10.6-6.7,19.9l0,0
				v29.1c0,9.3,2.4,15.7,6.7,19.9l0,0c4.3,4.2,11,6.5,20.7,6.5l0,0v2.8v2.8c-10.4,0-18.8-2.5-24.5-8.1l0,0
				c-5.7-5.5-8.4-13.7-8.4-23.8l0,0V73.4c0-10.1,2.7-18.3,8.4-23.8l0,0c5.7-5.5,14.1-8.1,24.5-8.1l0,0h40.1
				c10.4,0,18.8,2.5,24.5,8.1l0,0c5.7,5.5,8.4,13.7,8.4,23.8l0,0v29.1c0,10.1-2.2,18.1-6.9,23.7l0,0c-4.8,5.6-12,8.2-20.8,8.2l0,0
				C439.4,134.4,439.3,134.4,439.3,134.4L439.3,134.4z M434.2,115h-40.1v-2.8v-2.8h40.1c2.9,0,4.6-0.7,5.6-1.6l0,0
				c1-0.9,1.7-2.5,1.7-5.3l0,0V73.4c0-2.8-0.7-4.4-1.7-5.3l0,0c-1-1-2.7-1.6-5.6-1.7l0,0h-40.1c-2.9,0-4.6,0.7-5.6,1.7l0,0
				c-1,0.9-1.7,2.5-1.7,5.3l0,0v29.1c0,2.8,0.7,4.4,1.7,5.3l0,0c1,0.9,2.7,1.6,5.6,1.6l0,0v2.8v2.8c-3.8,0-7.1-0.9-9.4-3.2l0,0
				c-2.4-2.3-3.4-5.6-3.4-9.3l0,0V73.4c0-3.7,1-7,3.4-9.3l0,0c2.4-2.3,5.7-3.2,9.4-3.2l0,0h40.1c3.8,0,7.1,0.9,9.4,3.2l0,0
				c2.4,2.3,3.4,5.6,3.4,9.3l0,0v29.1c0,3.7-1,7-3.4,9.3l0,0C441.3,114.1,438,115,434.2,115L434.2,115
				C434.3,115,434.3,115,434.2,115L434.2,115z"/>
			<path d="M551.9,134.4v-61c0-2.8-0.7-4.4-1.7-5.3l0,0c-1-0.9-2.7-1.6-5.6-1.7l0,0h-47.4v68h-22.8v-2.8h2.8h-2.8v2.8h-2.8v-93h73
				c10.4,0,18.8,2.5,24.5,8.1l0,0c5.7,5.5,8.4,13.7,8.4,23.8l0,0v61L551.9,134.4L551.9,134.4z M554.1,64.1c2.4,2.3,3.4,5.6,3.4,9.3
				l0,0v55.5H572V73.4c0-9.3-2.4-15.7-6.7-19.9l0,0c-4.3-4.2-11-6.5-20.7-6.5l0,0h-67.5v81.9h14.5v-68h52.9c0,0,0,0,0,0l0,0
				C548.4,60.9,551.7,61.8,554.1,64.1L554.1,64.1z"/>
			<path d="M582,134.4v-22.2v-2.8h80.3v-9h-47.4c-10.4,0-18.7-2.3-24.4-7.3l0,0c-5.8-5-8.5-12.6-8.5-21.8l0,0
				c0-9.5,2.7-17.2,8.4-22.4l0,0c5.7-5.1,14-7.5,24.4-7.5l0,0h73v25h-80.3v9H655c10.4,0,18.7,2.3,24.4,7.4l0,0
				c5.8,5.1,8.5,12.7,8.5,22.1l0,0c0,9.4-2.7,17-8.5,22.1l0,0c-5.7,5.1-14,7.4-24.4,7.4l0,0H582L582,134.4z M587.5,128.9H655
				c9.7,0,16.5-2.2,20.7-6l0,0c4.3-3.8,6.6-9.5,6.6-18l0,0c0-8.4-2.3-14.2-6.6-18l0,0c-4.3-3.8-11.1-6-20.7-6l0,0h-52.9V60.9l80.3,0
				V47h-67.5c-9.7,0-16.4,2.2-20.7,6.1l0,0c-4.3,3.9-6.6,9.7-6.6,18.3l0,0c0,8.3,2.3,13.9,6.6,17.7l0,0c4.3,3.8,11.1,5.9,20.8,5.9
				l0,0h52.9V115h-80.3L587.5,128.9L587.5,128.9z"/>
		</g>
	</g>
</g>
</svg>
